<?xml version="1.0" encoding="UTF-8"?>
<!DOCTYPE svg PUBLIC "-//W3C//DTD SVG 1.1//EN" "http://www.w3.org/Graphics/SVG/1.1/DTD/svg11.dtd">
<svg xmlns="http://www.w3.org/2000/svg" version="1.1" width="400px" height="401px" style="shape-rendering:geometricPrecision; text-rendering:geometricPrecision; image-rendering:optimizeQuality; fill-rule:evenodd; clip-rule:evenodd" xmlns:xlink="http://www.w3.org/1999/xlink">
<g><path style="opacity:0.991" fill="#008ac7" d="M -0.5,305.5 C -0.5,213.167 -0.5,120.833 -0.5,28.5C 0.951334,16.7842 7.28467,8.95085 18.5,5C 114.5,4.33333 210.5,4.33333 306.5,5C 314.841,7.34075 320.674,12.5074 324,20.5C 325.412,32.1041 325.912,43.7707 325.5,55.5C 316.833,55.5 308.167,55.5 299.5,55.5C 299.5,47.1667 299.5,38.8333 299.5,30.5C 208.167,30.5 116.833,30.5 25.5,30.5C 25.5,121.5 25.5,212.5 25.5,303.5C 33.8333,303.5 42.1667,303.5 50.5,303.5C 50.5,312.167 50.5,320.833 50.5,329.5C 40.1613,329.666 29.828,329.5 19.5,329C 7.9224,325.262 1.25573,317.429 -0.5,305.5 Z"/></g>
<g><path style="opacity:0.994" fill="#008bc7" d="M 399.5,96.5 C 399.5,193.5 399.5,290.5 399.5,387.5C 396.93,392.406 393.596,396.739 389.5,400.5C 288.167,400.5 186.833,400.5 85.5,400.5C 79.7047,395.919 76.2047,389.919 75,382.5C 74.3333,288.833 74.3333,195.167 75,101.5C 76.494,90.3377 82.6606,83.171 93.5,80C 189.5,79.3333 285.5,79.3333 381.5,80C 390.255,82.5923 396.255,88.0923 399.5,96.5 Z M 100.5,105.5 C 191.833,105.5 283.167,105.5 374.5,105.5C 374.5,196.5 374.5,287.5 374.5,378.5C 283.167,378.5 191.833,378.5 100.5,378.5C 100.5,287.5 100.5,196.5 100.5,105.5 Z"/></g>
<g><path style="opacity:0.971" fill="#008ac6" d="M 224.5,191.5 C 233.167,191.5 241.833,191.5 250.5,191.5C 250.5,203.833 250.5,216.167 250.5,228.5C 263.167,228.5 275.833,228.5 288.5,228.5C 288.5,237.167 288.5,245.833 288.5,254.5C 275.833,254.5 263.167,254.5 250.5,254.5C 250.5,267.167 250.5,279.833 250.5,292.5C 241.833,292.5 233.167,292.5 224.5,292.5C 224.5,279.833 224.5,267.167 224.5,254.5C 212.167,254.5 199.833,254.5 187.5,254.5C 187.5,245.833 187.5,237.167 187.5,228.5C 199.833,228.5 212.167,228.5 224.5,228.5C 224.5,216.167 224.5,203.833 224.5,191.5 Z"/></g>
</svg>
