<svg xmlns="http://www.w3.org/2000/svg" version="1.1" xmlns:xlink="http://www.w3.org/1999/xlink" xmlns:svgjs="http://svgjs.dev/svgjs" width="128" height="128" viewBox="0 0 128 128"><g transform="matrix(0.8046875,0,0,0.8046875,12.760752631578946,12.75800441895494)"><svg viewBox="0 0 95 95" data-background-color="#ffffff" preserveAspectRatio="xMidYMid meet" height="128" width="128" xmlns="http://www.w3.org/2000/svg" xmlns:xlink="http://www.w3.org/1999/xlink"><g id="tight-bounds" transform="matrix(1,0,0,1,-0.24049999999999727,-0.2379652407836801)"><svg viewBox="0 0 95.481 95.47593048156735" height="95.47593048156735" width="95.481"><g><svg viewBox="0 0 95.481 95.47593048156735" height="95.47593048156735" width="95.481"><g><svg viewBox="0 0 95.481 95.47593048156735" height="95.47593048156735" width="95.481"><g id="textblocktransform"><svg viewBox="0 0 95.481 95.47593048156735" height="95.47593048156735" width="95.481" id="textblock"><g><svg viewBox="0 0 95.481 95.47593048156735" height="95.47593048156735" width="95.481"><g><svg viewBox="0 0 95.481 95.47593048156735" height="95.47593048156735" width="95.481"><g><svg xmlns="http://www.w3.org/2000/svg" xml:space="preserve" viewBox="21.748 21.75 56.503 56.5" x="0" y="0" height="95.47593048156735" width="95.481" class="icon-icon-0" data-fill-palette-color="accent" id="icon-0"><path d="M49.999 21.75c-15.578 0-28.251 12.673-28.251 28.25s12.673 28.25 28.251 28.25S78.251 65.577 78.251 50 65.577 21.75 49.999 21.75m0 54.5c-14.475 0-26.251-11.775-26.251-26.25s11.776-26.25 26.251-26.25S76.251 35.526 76.251 50 64.475 76.25 49.999 76.25m0-49.42c-12.776 0-23.171 10.394-23.171 23.17 0 12.775 10.395 23.17 23.171 23.17S73.171 62.775 73.171 50 62.775 26.83 49.999 26.83m14.245 24.92h-28.49v-3.5h28.49z" fill="#00aed9" data-fill-palette-color="accent"></path></svg></g></svg></g></svg></g></svg></g></svg></g><g></g></svg></g><defs></defs></svg><rect width="95.481" height="95.47593048156735" fill="none" stroke="none" visibility="hidden"></rect></g></svg></g></svg>