<svg xmlns="http://www.w3.org/2000/svg" version="1.1" xmlns:xlink="http://www.w3.org/1999/xlink" width="1500" height="401" viewBox="0 0 1500 401"><g transform="matrix(1,0,0,1,-0.9090909090909918,4.385172513794799)"><svg viewBox="0 0 396 106" data-background-color="#ffffff" preserveAspectRatio="xMidYMid meet" height="401" width="1500" xmlns="http://www.w3.org/2000/svg" xmlns:xlink="http://www.w3.org/1999/xlink"><g id="tight-bounds" transform="matrix(1,0,0,1,0.2400000000000091,0.21045923656998866)"><svg viewBox="0 0 395.52 105.57908152686004" height="105.57908152686004" width="395.52"><g><svg viewBox="0 0 575.3320977752576 153.5776558860066" height="105.57908152686004" width="395.52"><g transform="matrix(1,0,0,1,179.8120977752576,21.225276609426388)"><svg viewBox="0 0 395.52 111.12710266715382" height="111.12710266715382" width="395.52"><g id="textblocktransform"><svg viewBox="0 0 395.52 111.12710266715382" height="111.12710266715382" width="395.52" id="textblock"><g><svg viewBox="0 0 395.52 111.12710266715382" height="111.12710266715382" width="395.52"><g transform="matrix(1,0,0,1,0,0)"><svg width="395.52" viewBox="1.25 -37.7 136.84 38.45" height="111.12710266715382" data-palette-color="#008bc7"><path d="M19.75-6.4Q19.75-5.1 20.1-4.48 20.45-3.85 21.25-3.45L21.25-3.45 20 0.65Q17.95 0.4 16.73-0.45 15.5-1.3 14.9-3.05L14.9-3.05Q12.6 0.75 8.45 0.75L8.45 0.75Q5.15 0.75 3.2-1.48 1.25-3.7 1.25-7.4L1.25-7.4Q1.25-11.7 3.93-13.95 6.6-16.2 11.7-16.2L11.7-16.2 13.75-16.2 13.75-18.05Q13.75-20.55 12.88-21.58 12-22.6 10.05-22.6L10.05-22.6Q7.7-22.6 4.2-21.3L4.2-21.3 2.8-25.3Q4.8-26.2 6.95-26.68 9.1-27.15 11.05-27.15L11.05-27.15Q19.75-27.15 19.75-18.35L19.75-18.35 19.75-6.4ZM10.1-3.7Q12.5-3.7 13.75-7L13.75-7 13.75-12.55 12.3-12.55Q9.75-12.55 8.58-11.4 7.4-10.25 7.4-7.85L7.4-7.85Q7.4-5.8 8.1-4.75 8.8-3.7 10.1-3.7L10.1-3.7ZM37.9-27.15Q40.75-27.15 42.4-25.1 44.05-23.05 44.05-19.6L44.05-19.6 44.05 0 37.9 0 37.9-18.9Q37.9-20.8 37.37-21.63 36.85-22.45 35.85-22.45L35.85-22.45Q33.75-22.45 31.7-18.5L31.7-18.5 31.7 0 25.55 0 25.55-26.45 30.9-26.45 31.35-23Q32.7-25.1 34.22-26.13 35.75-27.15 37.9-27.15L37.9-27.15ZM59-27.15Q64-27.15 66.77-23.65 69.55-20.15 69.55-13.25L69.55-13.25Q69.55-6.65 66.75-2.95 63.95 0.75 59 0.75L59 0.75Q54.05 0.75 51.25-2.88 48.45-6.5 48.45-13.25L48.45-13.25Q48.45-19.95 51.25-23.55 54.05-27.15 59-27.15L59-27.15ZM59-22.5Q56.85-22.5 55.85-20.38 54.85-18.25 54.85-13.25L54.85-13.25Q54.85-8.2 55.85-6.08 56.85-3.95 59-3.95L59-3.95Q61.15-3.95 62.15-6.08 63.15-8.2 63.15-13.25L63.15-13.25Q63.15-18.3 62.15-20.4 61.15-22.5 59-22.5L59-22.5ZM87.04-37.7L93.19-37.05 93.19 0 87.74 0 87.44-3.05Q85.09 0.75 81.39 0.75L81.39 0.75Q77.29 0.75 75.12-2.93 72.94-6.6 72.94-13.2L72.94-13.2Q72.94-17.4 74.07-20.58 75.19-23.75 77.19-25.45 79.19-27.15 81.79-27.15L81.79-27.15Q84.99-27.15 87.04-24.5L87.04-24.5 87.04-37.7ZM83.14-3.9Q84.29-3.9 85.22-4.7 86.14-5.5 87.04-7L87.04-7 87.04-19.85Q85.44-22.55 83.39-22.55L83.39-22.55Q79.34-22.55 79.34-13.25L79.34-13.25Q79.34-8.2 80.34-6.05 81.34-3.9 83.14-3.9L83.14-3.9ZM117.74-13.85Q117.74-13.4 117.59-11.3L117.59-11.3 103.94-11.3Q104.14-7.2 105.37-5.58 106.59-3.95 108.84-3.95L108.84-3.95Q110.39-3.95 111.64-4.48 112.89-5 114.34-6.15L114.34-6.15 116.89-2.65Q113.39 0.75 108.49 0.75L108.49 0.75Q103.29 0.75 100.52-2.85 97.74-6.45 97.74-13L97.74-13Q97.74-19.55 100.39-23.35 103.04-27.15 107.89-27.15L107.89-27.15Q112.54-27.15 115.14-23.78 117.74-20.4 117.74-13.85L117.74-13.85ZM111.74-15.3L111.74-15.65Q111.74-19.4 110.84-21.13 109.94-22.85 107.94-22.85L107.94-22.85Q106.09-22.85 105.12-21.18 104.14-19.5 103.94-15.3L103.94-15.3 111.74-15.3ZM129.39-27.15Q134.09-27.15 137.34-24.05L137.34-24.05 134.99-20.7Q133.59-21.7 132.34-22.2 131.09-22.7 129.79-22.7L129.79-22.7Q128.34-22.7 127.51-21.93 126.69-21.15 126.69-19.8L126.69-19.8Q126.69-18.45 127.61-17.63 128.54-16.8 131.34-15.7L131.34-15.7Q134.79-14.35 136.44-12.5 138.09-10.65 138.09-7.55L138.09-7.55Q138.09-3.7 135.39-1.48 132.69 0.75 128.54 0.75L128.54 0.75Q125.84 0.75 123.56-0.23 121.29-1.2 119.59-2.95L119.59-2.95 122.59-6.25Q125.39-3.8 128.29-3.8L128.29-3.8Q129.94-3.8 130.89-4.67 131.84-5.55 131.84-7.1L131.84-7.1Q131.84-8.25 131.44-8.97 131.04-9.7 130.04-10.33 129.04-10.95 127.04-11.7L127.04-11.7Q123.59-13.05 122.11-14.85 120.64-16.65 120.64-19.45L120.64-19.45Q120.64-22.8 123.01-24.98 125.39-27.15 129.39-27.15L129.39-27.15Z" opacity="1" transform="matrix(1,0,0,1,0,0)" fill="#008bc7" class="wordmark-text-0" data-fill-palette-color="primary" id="text-0"></path></svg></g></svg></g></svg></g></svg></g><g><svg viewBox="0 0 153.5776558860066 153.5776558860066" height="153.5776558860066" width="153.5776558860066"><g><svg xmlns="http://www.w3.org/2000/svg" viewBox="0 0 32 32" x="0" y="0" height="153.5776558860066" width="153.5776558860066" class="icon-icon-0" data-fill-palette-color="accent" id="icon-0"><g data-name="69-Element" fill="#008bc7" data-fill-palette-color="accent"><path d="M30 6H8A2 2 0 0 0 6 8V30A2 2 0 0 0 8 32H30A2 2 0 0 0 32 30V8A2 2 0 0 0 30 6M30 30H8V8H30Z" fill="#008bc7" data-fill-palette-color="accent"></path><path d="M2 2H24V4H26V2A2 2 0 0 0 24 0H2A2 2 0 0 0 0 2V24A2 2 0 0 0 2 26H4V24H2Z" fill="#008bc7" data-fill-palette-color="accent"></path><polygon points="18 23 20 23 20 20 23 20 23 18 20 18 20 15 18 15 18 18 15 18 15 20 18 20 18 23" fill="#008bc7" data-fill-palette-color="accent"></polygon></g></svg></g></svg></g></svg></g><defs></defs></svg><rect width="395.52" height="105.57908152686004" fill="none" stroke="none" visibility="hidden"></rect></g></svg></g></svg>