<svg xmlns="http://www.w3.org/2000/svg" version="1.1" xmlns:xlink="http://www.w3.org/1999/xlink" xmlns:svgjs="http://svgjs.dev/svgjs" width="1500" height="738" viewBox="0 0 1500 738"><g transform="matrix(1,0,0,1,-0.9089794020807176,0.07485125094808609)"><svg viewBox="0 0 396 195" data-background-color="#ffffff" preserveAspectRatio="xMidYMid meet" height="738" width="1500" xmlns="http://www.w3.org/2000/svg" xmlns:xlink="http://www.w3.org/1999/xlink"><g id="tight-bounds" transform="matrix(1,0,0,1,0.239970562149324,-0.019777769559453873)"><svg viewBox="0 0 395.52 195.03871848407374" height="195.03871848407374" width="395.52"><g><svg viewBox="0 0 395.52 195.03871848407374" height="195.03871848407374" width="395.52"><g transform="matrix(1,0,0,1,0,101.17211969170451)"><svg viewBox="0 0 395.52 93.86659879236923" height="93.86659879236923" width="395.52"><g id="textblocktransform"><svg viewBox="0 0 395.52 93.86659879236923" height="93.86659879236923" width="395.52" id="textblock"><g><svg viewBox="0 0 395.52 93.86659879236923" height="93.86659879236923" width="395.52"><g transform="matrix(1,0,0,1,0,0)"><svg width="395.52" viewBox="-0.8404580803397663 -9.261937873403065 154.80622318352403 36.73931714723092" height="93.86659879236923" data-palette-color="#0074d9"><path d="M7.664-5.46v0l0.063-3.561c2.924-0.177 5.8 0.203 8.629 1.14v0c2.475 0.819 4.23 1.86 5.265 3.123v0c1.171 1.448 1.377 3.318 0.619 5.608v0l-3.124 9.437c-0.417 1.259-0.829 2.556-1.235 3.889v0c-0.241 0.791-0.432 1.634-0.574 2.527v0c-0.144 0.837-0.234 1.65-0.27 2.439v0l-4.064-0.418c-0.013-1.149 0.148-2.377 0.482-3.686v0l-0.449-0.201c-2.699 1.768-5.526 2.163-8.482 1.184v0c-2.152-0.712-3.686-1.88-4.602-3.504-0.91-1.621-1.005-3.518-0.287-5.688v0c0.534-1.614 1.33-2.818 2.387-3.613 1.057-0.795 2.354-1.331 3.892-1.608v0c2.434-0.437 5.505-0.042 9.215 1.186v0c0.487 0.161 1.143 0.396 1.968 0.704v0l1.16-3.503c0.367-1.108 0.293-2.02-0.221-2.738-0.514-0.718-1.495-1.317-2.945-1.796v0c-2.108-0.698-4.583-1.005-7.427-0.921zM14.532 11.245v0l1.603-4.842c-0.407-0.17-1.01-0.387-1.807-0.651v0c-1.354-0.448-2.64-0.744-3.856-0.887v0c-1.801-0.224-3.288-0.123-4.462 0.303-1.171 0.42-1.983 1.313-2.436 2.681v0c-0.815 2.462 0.113 4.135 2.784 5.019v0c1.386 0.459 2.803 0.517 4.25 0.175v0c1.184-0.289 2.492-0.888 3.924-1.798zM29.607-3.083v0l4.126-0.076c0.116 1.01 0.146 1.971 0.092 2.885v0c-0.022 0.444-0.115 1.31-0.279 2.597v0l0.5 0.1c1.199-1.424 2.538-2.484 4.017-3.178v0c1.623-0.761 3.221-0.982 4.797-0.664v0c2.366 0.477 4.051 1.412 5.055 2.805v0c0.87 1.182 1.309 2.815 1.317 4.897v0c-0.001 1.421-0.274 3.481-0.818 6.18v0l-2.635 13.057-4.097-0.826 2.864-14.194c0.477-2.366 0.587-4.105 0.328-5.218v0c-0.375-1.647-1.595-2.678-3.66-3.095v0c-1.464-0.295-3.036 0.115-4.717 1.231v0c-1.123 0.746-2.4 1.917-3.83 3.512v0l-3.091 15.321-4.098-0.827 3.076-15.242c0.432-2.143 0.75-4.004 0.953-5.582v0c0.138-0.986 0.171-2.213 0.1-3.683zM65.784 1.09v0c0.792 0.054 1.612 0.169 2.462 0.347 0.843 0.177 1.666 0.463 2.468 0.859v0c0.8 0.415 1.549 0.95 2.247 1.605 0.691 0.655 1.286 1.487 1.786 2.496v0c0.499 1.023 0.864 2.237 1.096 3.642 0.232 1.406 0.284 3.059 0.156 4.962v0c-0.129 1.909-0.403 3.544-0.823 4.906-0.419 1.361-0.945 2.505-1.575 3.431v0c-0.632 0.953-1.335 1.71-2.108 2.273-0.78 0.562-1.593 0.985-2.441 1.268v0c-0.849 0.303-1.703 0.486-2.563 0.549-0.866 0.062-1.695 0.066-2.486 0.012v0c-0.778-0.053-1.589-0.168-2.433-0.345-0.837-0.177-1.655-0.473-2.455-0.887v0c-0.802-0.395-1.545-0.923-2.229-1.584-0.69-0.661-1.285-1.507-1.783-2.536v0c-0.5-1.003-0.863-2.207-1.088-3.612-0.232-1.406-0.284-3.063-0.155-4.972v0c0.129-1.902 0.403-3.534 0.822-4.896 0.413-1.362 0.935-2.516 1.567-3.462v0c0.631-0.933 1.333-1.677 2.105-2.233 0.766-0.556 1.573-0.986 2.423-1.289v0c0.848-0.283 1.695-0.457 2.541-0.52 0.853-0.063 1.675-0.067 2.466-0.014zM65.553 4.502v0c-0.925-0.063-1.806 0.025-2.643 0.263-0.831 0.238-1.581 0.698-2.249 1.381v0c-0.676 0.703-1.242 1.663-1.698 2.882-0.457 1.219-0.751 2.806-0.883 4.761v0c-0.131 1.942-0.053 3.551 0.235 4.827 0.287 1.282 0.719 2.307 1.295 3.075v0c0.568 0.787 1.249 1.347 2.042 1.681 0.799 0.341 1.66 0.543 2.585 0.606v0c0.938 0.063 1.832-0.02 2.683-0.25 0.85-0.223 1.617-0.686 2.298-1.388v0c0.681-0.682 1.243-1.64 1.688-2.872 0.45-1.226 0.741-2.81 0.873-4.752v0c0.132-1.956 0.057-3.568-0.225-4.836-0.275-1.268-0.703-2.296-1.284-3.084v0c-0.583-0.768-1.28-1.326-2.092-1.675-0.812-0.349-1.686-0.555-2.625-0.619zM96.612 1.234l-0.552-9.754 4.174-0.236 1.436 25.399c0.161 2.849 0.307 4.714 0.436 5.594v0c0.142 1.1 0.396 2.271 0.76 3.513v0l-3.983 1.127c-0.324-0.89-0.576-1.794-0.754-2.712v0c-0.23-1.122-0.37-1.989-0.418-2.601v0l-0.369 0.021c-0.74 1.791-1.596 3.128-2.568 4.012v0c-1.172 1.121-2.663 1.733-4.473 1.835v0c-1.584 0.09-2.971-0.176-4.162-0.796-1.184-0.621-2.13-1.529-2.838-2.724-0.709-1.195-1.254-2.52-1.637-3.974-0.383-1.454-0.624-3.07-0.725-4.847v0c-0.114-2.01-0.009-3.826 0.313-5.447 0.322-1.627 0.877-3.084 1.666-4.371 0.789-1.287 1.883-2.303 3.283-3.05 1.4-0.754 3.071-1.185 5.015-1.295v0c1.518-0.086 3.316 0.016 5.396 0.306zM97.458 16.2v0l-0.638-11.282c-1.858-0.382-3.556-0.53-5.093-0.443v0c-1.311 0.074-2.426 0.378-3.344 0.91-0.918 0.526-1.619 1.237-2.103 2.132-0.484 0.895-0.818 1.886-1.004 2.972-0.179 1.079-0.232 2.28-0.157 3.604v0c0.052 0.912 0.117 1.709 0.196 2.393 0.079 0.683 0.194 1.421 0.345 2.214 0.152 0.799 0.357 1.476 0.616 2.029 0.258 0.553 0.571 1.063 0.938 1.529 0.367 0.467 0.827 0.808 1.38 1.024 0.56 0.222 1.193 0.313 1.898 0.273v0c1.717-0.097 3.169-0.87 4.356-2.32v0c0.849-1.05 1.719-2.728 2.61-5.035zM128.632 16.725l1.804 2.999c-1.637 1.033-3.204 1.846-4.7 2.439-1.496 0.593-2.857 1.005-4.082 1.235v0c-1.88 0.353-3.574 0.363-5.083 0.028-1.514-0.333-2.838-0.953-3.971-1.859-1.14-0.905-2.084-2.068-2.832-3.487-0.755-1.418-1.302-3.035-1.643-4.85v0c-0.209-1.114-0.34-2.243-0.392-3.386-0.045-1.145 0.011-2.254 0.169-3.328 0.163-1.082 0.445-2.112 0.844-3.089 0.399-0.984 0.945-1.87 1.638-2.658 0.693-0.788 1.546-1.467 2.558-2.037 1.012-0.57 2.213-0.985 3.602-1.246v0c3.551-0.667 6.433-0.058 8.645 1.826 2.219 1.883 3.717 4.895 4.495 9.035v0l0.245 1.308-17.484 3.283c0.251 1.337 0.617 2.492 1.099 3.466 0.481 0.975 1.087 1.76 1.815 2.356 0.729 0.596 1.587 0.991 2.573 1.185 0.98 0.196 2.098 0.176 3.357-0.06v0c0.701-0.132 1.389-0.315 2.064-0.551 0.675-0.235 1.321-0.496 1.939-0.781 0.623-0.293 1.214-0.598 1.772-0.913 0.557-0.322 1.08-0.627 1.568-0.915zM111.945 9.623l13.238-2.486c-0.616-2.557-1.589-4.324-2.918-5.302-1.33-0.978-3.02-1.274-5.072-0.89v0c-2.057 0.386-3.512 1.273-4.364 2.661-0.852 1.388-1.147 3.393-0.884 6.017zM139.219-8.355v0c1.267-0.395 2.58-0.661 3.94-0.799 1.354-0.136 2.654-0.143 3.9-0.022v0c-0.062 0.564-0.136 1.121-0.222 1.672-0.078 0.555-0.185 1.109-0.32 1.66v0c-0.431-0.04-0.91-0.062-1.435-0.066-0.519-0.006-1.053 0.017-1.602 0.07-0.556 0.055-1.118 0.132-1.687 0.233-0.569 0.101-1.118 0.233-1.646 0.398v0c-0.573 0.179-1.105 0.408-1.598 0.687-0.499 0.281-0.914 0.62-1.244 1.016-0.326 0.388-0.547 0.834-0.662 1.338-0.115 0.504-0.075 1.071 0.122 1.701v0c0.202 0.649 0.513 1.153 0.932 1.511 0.417 0.352 0.91 0.6 1.479 0.744 0.569 0.144 1.206 0.218 1.912 0.22 0.704-0.003 1.446-0.032 2.225-0.086v0c1.22-0.073 2.371-0.09 3.452-0.05 1.083 0.046 2.068 0.239 2.955 0.577 0.879 0.333 1.65 0.847 2.314 1.541 0.657 0.696 1.173 1.645 1.548 2.848v0c0.397 1.273 0.486 2.443 0.267 3.51-0.219 1.067-0.665 2.033-1.338 2.899-0.675 0.86-1.54 1.611-2.596 2.256-1.056 0.644-2.234 1.168-3.532 1.572v0c-0.681 0.212-1.394 0.389-2.139 0.531-0.745 0.142-1.493 0.239-2.245 0.291-0.756 0.061-1.511 0.08-2.266 0.057-0.752-0.017-1.471-0.072-2.157-0.165v0c0.062-0.564 0.137-1.118 0.226-1.662 0.095-0.546 0.201-1.093 0.316-1.639v0c0.577 0.058 1.181 0.093 1.814 0.105 0.634 0.019 1.276 0.004 1.924-0.045 0.648-0.049 1.278-0.123 1.889-0.222 0.611-0.1 1.191-0.235 1.738-0.406v0c0.675-0.21 1.31-0.492 1.905-0.845 0.595-0.353 1.092-0.777 1.489-1.271 0.4-0.488 0.671-1.04 0.814-1.657 0.134-0.622 0.086-1.305-0.147-2.05v0c-0.216-0.694-0.538-1.222-0.966-1.584-0.425-0.356-0.923-0.609-1.493-0.76-0.579-0.155-1.22-0.227-1.922-0.218-0.698 0.001-1.429 0.03-2.194 0.087v0c-1.165 0.07-2.284 0.087-3.357 0.052-1.075-0.042-2.057-0.225-2.946-0.548-0.89-0.323-1.675-0.826-2.356-1.507-0.678-0.675-1.206-1.618-1.583-2.827v0c-0.351-1.127-0.423-2.173-0.214-3.139 0.209-0.966 0.623-1.832 1.243-2.597 0.618-0.772 1.4-1.446 2.345-2.02 0.952-0.576 1.991-1.04 3.118-1.391z" opacity="1" transform="matrix(1,0,0,1,0,0)" fill="#0074d9" class="wordmark-text-0" data-fill-palette-color="primary" id="text-0"></path></svg></g></svg></g></svg></g></svg></g><g transform="matrix(1,0,0,1,150.82420857021913,0)"><svg viewBox="0 0 93.87158285956174 93.86659879236923" height="93.86659879236923" width="93.87158285956174"><g><svg xmlns="http://www.w3.org/2000/svg" xml:space="preserve" viewBox="21.748 21.75 56.503 56.5" x="0" y="0" height="93.86659879236923" width="93.87158285956174" class="icon-icon-0" data-fill-palette-color="accent" id="icon-0"><path d="M49.999 21.75c-15.578 0-28.251 12.673-28.251 28.25s12.673 28.25 28.251 28.25S78.251 65.577 78.251 50 65.577 21.75 49.999 21.75m0 54.5c-14.475 0-26.251-11.775-26.251-26.25s11.776-26.25 26.251-26.25S76.251 35.526 76.251 50 64.475 76.25 49.999 76.25m0-49.42c-12.776 0-23.171 10.394-23.171 23.17 0 12.775 10.395 23.17 23.171 23.17S73.171 62.775 73.171 50 62.775 26.83 49.999 26.83m14.245 24.92h-28.49v-3.5h28.49z" fill="#00aed9" data-fill-palette-color="accent"></path></svg></g></svg></g><g></g></svg></g><defs></defs></svg><rect width="395.52" height="195.03871848407374" fill="none" stroke="none" visibility="hidden"></rect></g></svg></g></svg>